<?xml version="1.0" encoding="UTF-8"?>
<svg xmlns="http://www.w3.org/2000/svg" xmlns:xlink="http://www.w3.org/1999/xlink" viewBox="0 0 24 24" width="24px" height="24px">
<g id="surface122097862">
<path style=" stroke:none;fill-rule:nonzero;fill:rgb(100%,100%,100%);fill-opacity:1;" d="M 14.300781 19.414062 C 14.515625 18.84375 14.640625 18.195312 14.640625 17.5 C 14.640625 15.371094 13.503906 13.640625 12.101562 13.640625 C 10.691406 13.640625 9.554688 15.371094 9.554688 17.5 C 9.554688 18.183594 9.667969 18.832031 9.882812 19.390625 C 5.226562 19.882812 1.945312 21.828125 0.613281 22.703125 C 2.859375 19.46875 5.203125 15.679688 7.445312 11.316406 C 8.003906 10.234375 8.527344 9.164062 9.015625 8.117188 C 9.210938 8.242188 9.402344 8.382812 9.621094 8.519531 C 10.621094 9.144531 11.554688 9.484375 12.238281 9.667969 C 11.738281 9.292969 11.191406 8.835938 10.632812 8.277344 C 10.214844 7.859375 9.835938 7.4375 9.519531 7.027344 C 10.464844 4.953125 11.28125 2.960938 12 1.070312 C 13.195312 4.234375 14.6875 7.6875 16.554688 11.316406 C 17.761719 13.652344 18.992188 15.828125 20.21875 17.832031 C 19.867188 17.636719 19.480469 17.453125 19.070312 17.296875 C 18.363281 17.023438 17.703125 16.851562 17.132812 16.75 C 17.90625 17.136719 18.808594 17.648438 19.753906 18.332031 C 20.367188 18.789062 20.914062 19.242188 21.382812 19.6875 C 21.390625 19.699219 21.390625 19.699219 21.402344 19.710938 C 22.054688 20.769531 22.726562 21.75 23.386719 22.703125 C 22.074219 21.839844 18.855469 19.925781 14.300781 19.414062 Z M 14.300781 19.414062 "/>
</g>
</svg>
